#!OML:ASF G:\JayActor3\Patient Classification 1\Patient 1\Session 5\male.ASF
:FULLY-SPECIFIED
:DEGREES
1110
root 66.4327 15.0649 -4.58503 232.444 -85.6167 -217.154
lowerback 31.324 0.121275 -0.00434368
upperback 8.14574 -0.805421 -1.32433
thorax -7.95079 -0.70847 -1.14716
lowerneck 4.0128 0.660906 1.50262
upperneck -17.1336 0.859066 0.560432
head -5.82821 0.14539 -0.112632
rclavicle 2.46617e-015 1.2803e-014
rhumerus -27.7969 5.57104 -89.7958
rradius 37.8393
rwrist -4.23196
rhand -20.4224 -6.04328
rfingers 7.12502
rthumb 5.93199 -35.9402
lclavicle 2.46617e-015 1.2803e-014
lhumerus -29.4681 -9.53866 88.3729
lradius 36.1888
lwrist 23.3704
lhand -20.7335 10.5537
lfingers 7.12502
lthumb 5.63166 40.4589
rfemur -64.8376 3.22621 15.043
rtibia 73.1385
rfoot -7.48548 -14.0262
rtoes -34.4358
lfemur -36.4701 0.197573 -29.8192
ltibia 45.048
lfoot -24.2942 6.80164
ltoes 2.13653
1111
root 66.5155 15.0715 -4.58635 232.211 -85.7207 -216.954
lowerback 31.3118 0.0766701 0.059659
upperback 8.15792 -0.840236 -1.30573
thorax -7.93215 -0.725558 -1.1506
lowerneck 4.00679 0.639238 1.49905
upperneck -17.1418 0.83132 0.582079
head -5.83001 0.129991 -0.103457
rclavicle -1.24613e-014 -2.15433e-014
rhumerus -27.795 5.64132 -89.8382
rradius 37.9179
rwrist -4.26786
rhand -20.4217 -6.13367
rfingers 7.12502
rthumb 5.93266 -36.0306
lclavicle -1.24613e-014 -2.15433e-014
lhumerus -29.4262 -9.54199 88.324
lradius 36.0988
lwrist 23.3332
lhand -20.7109 10.5838
lfingers 7.12502
lthumb 5.65346 40.4884
rfemur -64.4459 3.19222 15.1872
rtibia 74.523
rfoot -7.5856 -14.4097
rtoes -34.8575
lfemur -36.8137 -0.00286046 -29.6533
ltibia 45.0431
lfoot -23.7418 6.94314
ltoes 2.04679
1112
root 66.5979 15.0784 -4.58828 231.869 -85.8208 -216.647
lowerback 31.3075 0.0375984 0.117097
upperback 8.17083 -0.870125 -1.28336
thorax -7.91618 -0.740412 -1.14774
lowerneck 3.99127 0.617543 1.49009
upperneck -17.1378 0.801683 0.595982
head -5.82629 0.114848 -0.0956877
rclavicle 2.28105e-014 3.75206e-014
rhumerus -27.7733 5.70234 -89.866
rradius 37.9677
rwrist -4.29388
rhand -20.4256 -6.18302
rfingers 7.12502
rthumb 5.92894 -36.0801
lclavicle 2.28105e-014 3.75206e-014
lhumerus -29.3758 -9.53879 88.2806
lradius 36.0269
lwrist 23.3196
lhand -20.6966 10.6082
lfingers 7.12502
lthumb 5.66727 40.5124
rfemur -64.0071 3.15636 15.3413
rtibia 75.7961
rfoot -7.76304 -14.5966
rtoes -35.0677
lfemur -37.1391 -0.171525 -29.4859
ltibia 45.0296
lfoot -23.1612 7.07602
ltoes 1.96426
1113
root 66.6796 15.0865 -4.59026 231.348 -85.9037 -216.154
lowerback 31.2968 0.0102903 0.164562
upperback 8.18263 -0.888209 -1.26107
thorax -7.89818 -0.749619 -1.1436
lowerneck 3.97598 0.593944 1.48184
upperneck -17.1271 0.768703 0.60358
head -5.82053 0.0986842 -0.089828
rclavicle 8.87077e-015 2.16427e-014
rhumerus -27.7414 5.74993 -89.8791
rradius 37.9956
rwrist -4.31632
rhand -20.4405 -6.16432
rfingers 7.12502
rthumb 5.91457 -36.0618
lclavicle 8.87077e-015 2.16427e-014
lhumerus -29.3199 -9.53642 88.2436
lradius 35.9692
lwrist 23.3271
lhand -20.6932 10.6374
lfingers 7.12502
lthumb 5.67061 40.5415
rfemur -63.5291 3.12068 15.4995
rtibia 76.9581
rfoot -7.95827 -14.6246
rtoes -35.2668
lfemur -37.4679 -0.312996 -29.3216
ltibia 44.9998
lfoot -22.5125 7.20697
ltoes 1.92107
1114
root 66.7608 15.0903 -4.59254 230.663 -85.9563 -215.488
lowerback 31.2746 -0.00395006 0.190243
upperback 8.19797 -0.897213 -1.24222
thorax -7.87038 -0.754509 -1.1341
lowerneck 3.94026 0.576797 1.46833
upperneck -17.1022 0.742451 0.603813
head -5.80669 0.0869156 -0.0857875
rclavicle -2.5842e-015 1.08338e-014
rhumerus -27.7021 5.81119 -89.8805
rradius 38.0278
rwrist -4.34844
rhand -20.4445 -6.12932
rfingers 7.12502
rthumb 5.91069 -36.0269
lclavicle -2.5842e-015 1.08338e-014
lhumerus -29.2465 -9.52242 88.2069
lradius 35.9241
lwrist 23.3525
lhand -20.7035 10.6656
lfingers 7.12502
lthumb 5.66058 40.57
rfemur -62.9924 3.08067 15.666
rtibia 78.0285
rfoot -8.24203 -14.5593
rtoes -35.3934
lfemur -37.7843 -0.403025 -29.1873
ltibia 44.9595
lfoot -21.8882 7.33515
ltoes 1.89647
1115
root 66.8419 15.0937 -4.59471 229.974 -85.984 -214.796
lowerback 31.229 -0.00743872 0.201982
upperback 8.20847 -0.896636 -1.22973
thorax -7.83696 -0.754424 -1.12736
lowerneck 3.90556 0.560987 1.46262
upperneck -17.0656 0.718303 0.597985
head -5.78929 0.0764788 -0.0851121
rclavicle -1.11568e-014 -1.16289e-014
rhumerus -27.6742 5.87987 -89.874
rradius 38.0816
rwrist -4.40532
rhand -20.1638 -6.45962
rfingers 7.12502
rthumb 6.18173 -36.3494
lclavicle -1.11568e-014 -1.16289e-014
lhumerus -29.163 -9.4999 88.1742
lradius 35.8877
lwrist 23.3715
lhand -20.7207 10.6651
lfingers 7.12502
lthumb 5.64397 40.57
rfemur -62.4381 3.03948 15.8239
rtibia 79
rfoot -8.49693 -14.4364
rtoes -35.4779
lfemur -38.095 -0.458749 -29.0829
ltibia 44.8913
lfoot -21.2859 7.44837
ltoes 1.87383
1116
root 66.9226 15.0966 -4.59708 229.558 -85.9992 -214.358
lowerback 31.1664 -0.00967912 0.201494
upperback 8.21424 -0.897887 -1.22399
thorax -7.80102 -0.7547 -1.12058
lowerneck 3.87023 0.550329 1.46205
upperneck -17.0252 0.701756 0.591069
head -5.77056 0.0696345 -0.0861117
rclavicle -2.17172e-014 -9.96408e-015
rhumerus -27.6597 5.94862 -89.8636
rradius 38.1616
rwrist -4.47025
rhand -19.9664 -6.74601
rfingers 7.12502
rthumb 6.37224 -36.6302
lclavicle -2.17172e-014 -9.96408e-015
lhumerus -29.0823 -9.47168 88.1423
lradius 35.8734
lwrist 23.389
lhand -20.7391 10.6714
lfingers 7.12502
lthumb 5.6263 40.5767
rfemur -61.8946 2.97455 15.9647
rtibia 79.8881
rfoot -8.6695 -14.2607
rtoes -35.5113
lfemur -38.3676 -0.484581 -29.0206
ltibia 44.7767
lfoot -20.7445 7.54681
ltoes 1.81322
1117
root 67.0033 15.0995 -4.59991 229.39 -86.009 -214.141
lowerback 31.0771 -0.0101344 0.194417
upperback 8.21734 -0.898328 -1.22402
thorax -7.75562 -0.754113 -1.11698
lowerneck 3.83476 0.542186 1.46428
upperneck -16.9905 0.689526 0.588312
head -5.75362 0.0642823 -0.0865344
rclavicle 8.44835e-016 2.18663e-015
rhumerus -27.6267 5.98194 -89.8486
rradius 38.2184
rwrist -4.52393
rhand -19.7924 -7.02111
rfingers 7.12502
rthumb 6.54022 -36.9001
lclavicle 8.44835e-016 2.18663e-015
lhumerus -29.0022 -9.4478 88.1094
lradius 35.8832
lwrist 23.4013
lhand -20.7606 10.6719
lfingers 7.12502
lthumb 5.60549 40.5778
rfemur -61.3975 2.89459 16.0917
rtibia 80.7009
rfoot -8.73519 -14.0535
rtoes -35.3659
lfemur -38.5915 -0.477858 -28.9942
ltibia 44.5967
lfoot -20.3116 7.61306
ltoes 1.69077
1118
root 67.0834 15.1052 -4.60294 229.422 -86.0129 -214.108
lowerback 30.9862 -0.0087466 0.183635
upperback 8.20801 -0.896816 -1.2301
thorax -7.72362 -0.752047 -1.11873
lowerneck 3.81589 0.532906 1.47539
upperneck -16.9659 0.677397 0.587364
head -5.74268 0.0581837 -0.0879136
rclavicle -7.20594e-015 2.93207e-015
rhumerus -27.5898 5.97075 -89.8299
rradius 38.2423
rwrist -4.5488
rhand -19.7151 -7.1999
rfingers 7.12502
rthumb 6.61483 -37.0766
lclavicle -7.20594e-015 2.93207e-015
lhumerus -28.9535 -9.43934 88.0807
lradius 35.9359
lwrist 23.42
lhand -20.7784 10.6452
lfingers 7.12502
lthumb 5.58833 40.5515
rfemur -60.9481 2.80219 16.2009
rtibia 81.4358
rfoot -8.68066 -13.815
rtoes -35.0907
lfemur -38.7728 -0.447596 -28.9943
ltibia 44.3483
lfoot -19.902 7.67022
ltoes 1.47643
1119
root 67.1635 15.1127 -4.60617 229.55 -86.0083 -214.144
lowerback 30.8822 -0.00380292 0.163201
upperback 8.19143 -0.892779 -1.23807
thorax -7.69359 -0.748304 -1.11801
lowerneck 3.79565 0.528635 1.4808
upperneck -16.954 0.672403 0.59371
head -5.73551 0.0550659 -0.0864678
rclavicle -2.10712e-014 -9.0447e-015
rhumerus -27.5467 5.9431 -89.8042
rradius 38.2513
rwrist -4.56257
rhand -19.8129 -7.15084
rfingers 7.12502
rthumb 6.52041 -37.0305
lclavicle -2.10712e-014 -9.0447e-015
lhumerus -28.9171 -9.42481 88.0573
lradius 36.0152
lwrist 23.4327
lhand -20.804 10.6215
lfingers 7.12502
lthumb 5.56357 40.5285
rfemur -60.5646 2.6948 16.2981
rtibia 82.0991
rfoot -8.52319 -13.5549
rtoes -34.6728
lfemur -38.9504 -0.39864 -29.0116
ltibia 44.0441
lfoot -19.4887 7.71148
ltoes 1.1816
1120
root 67.2437 15.1204 -4.60957 229.569 -85.9823 -214.048
lowerback 30.7775 0.0113046 0.128699
upperback 8.16319 -0.879538 -1.24989
thorax -7.67617 -0.739748 -1.11674
lowerneck 3.77455 0.528995 1.48587
upperneck -16.9495 0.673986 0.602837
head -5.73049 0.0547902 -0.0844794
rclavicle 1.29707e-014 1.98288e-014
rhumerus -27.4942 5.89768 -89.7711
rradius 38.2222
rwrist -4.55895
rhand -19.9977 -6.94708
rfingers 7.12502
rthumb 6.34199 -36.8321
lclavicle 1.29707e-014 1.98288e-014
lhumerus -28.8995 -9.41145 88.0393
lradius 36.1229
lwrist 23.4585
lhand -20.8314 10.5963
lfingers 7.12502
lthumb 5.53711 40.504
rfemur -60.2274 2.5876 16.3877
rtibia 82.6881
rfoot -8.30859 -13.3074
rtoes -34.1898
lfemur -39.1451 -0.321154 -29.0432
ltibia 43.7197
lfoot -19.0844 7.72968
ltoes 0.813538
